# AST/ASF file generated using VICON BodyLanguage
# -----------------------------------------------
:version 1.10
:name VICON
:units
  mass 1.0
  length 0.45
  angle deg
:documentation
   .ast/.asf automatically generated from VICON data using
   VICON BodyBuilder and BodyLanguage model FoxedUp or BRILLIANT.MOD
:root
   order TX TY TZ RX RY RZ
   axis XYZ
   position 0 0 0  
   orientation 0 0 0 
:bonedata
  begin
     id 1 
     name lhipjoint
     direction 0.561145 -0.797705 0.220866 
     length 2.46425 
     axis 0 0 0  XYZ
  end
  begin
     id 2 
     name lfemur
     direction 0.34202 -0.939693 0  
     length 7.95556  
     axis 0 0 20  XYZ
    dof rx ry rz
    limits (-160.0 20.0)
           (-70.0 70.0)
           (-60.0 70.0)
  end
  begin
     id 3 
     name ltibia
     direction 0.34202 -0.939693 0   
     length 7.9832   
     axis 0 0 20   XYZ
    dof rx
    limits (-10.0 170.0)
  end
  begin
     id 4 
     name lfoot
     direction 0.0723927 -0.198897 0.977343   
     length 2.23085   
     axis -90 7.62852e-016 20   XYZ
    dof rx rz
    limits (-45.0 90.0)
           (-70.0 20.0)
  end
  begin
     id 5 
     name ltoes
     direction 1.53826e-011 -4.21988e-011 1   
     length 1.12127   
     axis -90 7.62852e-016 20   XYZ
    dof rx
    limits (-90.0 20.0)
  end
  begin
     id 6 
     name rhipjoint
     direction -0.610499 -0.763299 0.21134   
     length 2.57533  
     axis 0 0 0  XYZ 
  end
  begin
     id 7 
     name rfemur
     direction -0.34202 -0.939693 0   
     length 8.65257   
     axis 0 0 -20   XYZ
    dof rx ry rz
    limits (-160.0 20.0)
           (-70.0 70.0)
           (-70.0 60.0)
  end
  begin
     id 8 
     name rtibia
     direction -0.342021 -0.939692 0   
     length 7.37807   
     axis 0 0 -20   XYZ
    dof rx
    limits (-10.0 170.0)
 end
 begin
     id 9 
     name rfoot
     direction -0.0239304 -0.0543852 0.998233   
     length 1.87018  
     axis -90 -7.62852e-016 -20   XYZ
    dof rx rz
    limits (-45.0 90.0)
           (-20.0 70.0)
  end
  begin
     id 10 
     name rtoes
     direction -1.53584e-011 -4.2242e-011 1   
     length 0.951568   
     axis -90 -7.62852e-016 -20   XYZ
    dof rx
    limits (-90.0 20.0)
  end
  begin
     id 11 
     name lowerback
     direction 0.00322089 0.999033 0.0438587   
     length 2.07568   
     axis 0 0 0   XYZ
    dof rx ry rz
    limits (-20.0 45.0)
           (-30.0 30.0)
           (-30.0 30.0)
  end
  begin
     id 12 
     name upperback
     direction -0.00321932 0.999732 -0.0229403   
     length 2.06253   
     axis 0 0 0   XYZ
    dof rx ry rz
    limits (-20.0 45.0)
           (-30.0 30.0)
           (-30.0 30.0)
  end
  begin
     id 13 
     name thorax
     direction -0.00537537 0.998955 -0.0453918   
     length 2.06975   
     axis 0 0 0   XYZ
    dof rx ry rz
    limits (-20.0 45.0)
           (-30.0 30.0)
           (-30.0 30.0)
  end
  begin
     id 14 
     name lowerneck
     direction -0.00013604 0.994111 0.108363   
     length 1.50836   
     axis 0 0 0   XYZ
    dof rx ry rz
    limits (-20.0 45.0)
           (-30.0 30.0)
           (-30.0 30.0)
  end
  begin
     id 15 
     name upperneck
     direction 0.0397262 0.983859 -0.174482   
     length 1.53037   
     axis 0 0 0   XYZ
    dof rx ry rz
    limits (-20.0 45.0)
           (-30.0 30.0)
           (-30.0 30.0)
  end
  begin
     id 16
     name head
     direction 0.0109991 0.997082 -0.0755378  
     length 1.56928  
     axis 0 0 0   XYZ
    dof rx ry rz
    limits (-20.0 45.0)
           (-30.0 30.0)
           (-30.0 30.0)
  end
  begin
     id 17 
     name lclavicle
     direction 0.964749 0.254 -0.068874  
     length 3.26503  
     axis 0 0 0   XYZ
    dof ry rz
    limits (-20.0 10.0)
           (0.0 20.0)
  end
  begin
     id 18 
     name lhumerus
     direction 1 -4.48941e-011 -2.05079e-027   
     length 5.68236   
     axis 180 -30 -90   XYZ
    dof rx ry rz
    limits (-60.0 90.0)
           (-90.0 90.0)
           (-90.0 90.0)
  end
  begin
     id 19
     name lradius
     direction 1 -4.48956e-011 6.2882e-027   
     length 3.17112   
     axis 180 -30 -90   XYZ
    dof rx
    limits (-10.0 170.0)
  end
  begin
     id 20
     name lwrist
     direction 1 -4.49014e-011 1.73219e-026   
     length 1.58556   
     axis -1.04724e-014 90 90   XYZ
    dof ry
    limits (-180.0 0.0)
 end
  begin
     id 21 
     name lhand
     direction 1 -4.49312e-011 3.46438e-026   
     length 0.632691   
     axis -2.21057e-014 90 90   XYZ
    dof rx rz
    limits (-90.0 90.0)
           (-45.0 45.0)
  end
  begin
     id 22 
     name lfingers
     direction 1 -4.48894e-011 6.92876e-026   
     length 0.510091   
     axis -4.42114e-014 90 90   XYZ
    dof rx
    limits (0.0 90.0)
  end
  begin
     id 23
     name lthumb
     direction 0.707107 -6.34705e-011 0.707107   
     length 0.732392   
     axis -90 45 2.85299e-015   XYZ
    dof rx rz
    limits (-45.0 45.0)
           (-45.0 45.0)
  end
  begin
     id 24 
     name rclavicle
     direction -0.954374 0.280496 -0.102435   
     length 3.25419  
     axis 0 0 0   XYZ 
    dof ry rz
    limits (-10.0 20.0)
           (-20.0 0.0)
  end
  begin
     id 25 
     name rhumerus
     direction -1 -4.48994e-011 -1.07204e-017  
     length 5.8712   
     axis 180 30 90   XYZ
    dof rx ry rz
    limits (-90.0 60.0)
           (-90.0 90.0)
           (-90.0 90.0)
  end
  begin
     id 26 
     name rradius
     direction -1 -4.48972e-011 5.89292e-027   
     length 3.37589   
     axis 180 30 90   XYZ
    dof rx
    limits (-10.0 170.0)
  end
  begin
     id 27 
     name rwrist
     direction -1 -4.48942e-011 1.73219e-026   
     length 1.68794   
     axis -1.04724e-014 -90 -90   XYZ
    dof ry
    limits (-180.0 0.0)
  end
  begin
     id 28
     name rhand
     direction -1 -4.48514e-011 3.46438e-026   
     length 0.603257   
     axis -2.21057e-014 -90 -90   XYZ
    dof rx rz
    limits (-90.0 90.0)
           (-45.0 45.0)
  end
  begin
     id 29
     name rfingers
     direction -1 -4.50028e-011 6.92876e-026   
     length 0.486362   
     axis -4.42114e-014 -90 -90   XYZ
    dof rx
    limits (0.0 90.0)
  end
  begin
     id 30
     name rthumb
     direction -0.707107 -6.34926e-011 0.707107   
     length 0.698321   
     axis -90 -45 -2.85299e-015   XYZ
    dof rx rz
    limits (-45.0 45.0)
           (-45.0 45.0)
  end
:hierarchy
  begin
    root lhipjoint rhipjoint lowerback
    lhipjoint lfemur
    lfemur ltibia
    ltibia lfoot
    lfoot ltoes
    rhipjoint rfemur
    rfemur rtibia
    rtibia rfoot
    rfoot rtoes
    lowerback upperback
    upperback thorax
    thorax lowerneck lclavicle rclavicle
    lowerneck upperneck
    upperneck head
    lclavicle lhumerus
    lhumerus lradius
    lradius lwrist
    lwrist lhand lthumb
    lhand lfingers
    rclavicle rhumerus
    rhumerus rradius
    rradius rwrist
    rwrist rhand rthumb
    rhand rfingers
  end

#!OML:ASF I:\Segmentation\Patient Classification 1\Patient 1\Session 1\Patient1.ASF
:FULLY-SPECIFIED
:DEGREES
1
root -10.9712 18.3726 0.940618 3.94378 76.2319 -5.72952
lowerback -7.35472 -0.581506 -1.11554
upperback 2.81678 -0.743504 1.3009
thorax 7.11872 -0.445283 1.89343
lowerneck -17.6789 -1.78411 -3.75277
upperneck 22.9614 -2.13096 3.48376
head 10.3489 -0.818952 1.5821
rclavicle -1.66482e-015 9.34288e-015
rhumerus -34.7307 -30.1792 -72.1427
rradius 31.7122
rwrist 19.3862
rhand -23.8502 33.8592
rfingers 7.12502
rthumb 2.622 3.89553
lclavicle -1.66482e-015 9.34288e-015
lhumerus -28.0247 -0.39077 85.006
lradius 32.1652
lwrist 11.4532
lhand -12.7185 33.6252
lfingers 7.12502
lthumb 13.3645 63.1766
rfemur -23.0063 4.00798 22.9735
rtibia 30.8916
rfoot 0.383873 8.67883
rtoes 47.7146
lfemur -10.7792 -3.21855 -19.6575
ltibia 25.5826
lfoot -27.1617 3.42565
ltoes -16.1015
2
root -10.9294 18.3734 0.984873 4.8041 76.3438 -4.85748
lowerback -7.33426 -0.587986 -1.13712
upperback 2.74159 -0.752602 1.34123
thorax 7.02822 -0.450584 1.94677
lowerneck -17.5964 -1.78643 -3.75973
upperneck 22.8182 -2.0928 3.32281
head 10.2781 -0.823318 1.52986
rclavicle -3.15322e-014 1.40143e-014
rhumerus -34.95 -31.0229 -71.8507
rradius 30.6671
rwrist 19.3905
rhand -24.2968 33.97
rfingers 7.12502
rthumb 2.19067 4.00152
lclavicle -3.15322e-014 1.40143e-014
lhumerus -28.4304 -0.284323 85.1214
lradius 32.3408
lwrist 11.591
lhand -12.6376 33.8275
lfingers 7.12502
lthumb 13.4425 63.3737
rfemur -22.8502 3.90103 22.8622
rtibia 30.9865
rfoot 0.281538 9.03971
rtoes 47.3724
lfemur -10.9202 -2.33837 -19.7719
ltibia 26.0243
lfoot -26.5167 3.0287
ltoes -17.5589
3
root -10.8907 18.3764 1.02932 5.41701 76.5105 -4.27218
lowerback -7.35138 -0.597903 -1.11367
upperback 2.68578 -0.772311 1.41063
thorax 6.98037 -0.460093 2.00373
lowerneck -17.5146 -1.79616 -3.82254
upperneck 22.6245 -2.06734 3.23102
head 10.1915 -0.830343 1.50947
rclavicle 3.27995e-014 -2.16675e-014
rhumerus -35.1273 -31.8032 -71.5505
rradius 29.7024
rwrist 19.5312
rhand -24.5828 33.9652
rfingers 7.12502
rthumb 1.91452 3.99404
lclavicle 3.27995e-014 -2.16675e-014
lhumerus -28.7866 -0.253014 85.2776
lradius 32.5436
lwrist 11.7688
lhand -12.6296 33.9576
lfingers 7.12502
lthumb 13.4503 63.5033
rfemur -22.6883 3.80022 22.8299
rtibia 30.9744
rfoot 0.238668 9.23506
rtoes 47.3379
lfemur -11.2555 -1.41364 -19.7857
ltibia 26.7383
lfoot -25.9003 2.60091
ltoes -19.3969
4
root -10.8523 18.3807 1.07265 5.97718 76.6977 -3.72388
lowerback -7.35969 -0.610582 -1.08825
upperback 2.64563 -0.796805 1.49643
thorax 6.94465 -0.47236 2.07626
lowerneck -17.4354 -1.80462 -3.90852
upperneck 22.4111 -2.03531 3.14439
head 10.0987 -0.835645 1.49563
rclavicle -3.10601e-014 5.96354e-015
rhumerus -35.3122 -32.4794 -71.2138
rradius 28.769
rwrist 19.9671
rhand -25.0799 34.0877
rfingers 7.12502
rthumb 1.43439 4.11279
lclavicle -3.10601e-014 5.96354e-015
lhumerus -29.0546 -0.18941 85.4629
lradius 32.659
lwrist 11.8729
lhand -12.7209 33.915
lfingers 7.12502
lthumb 13.3622 63.4665
rfemur -22.5196 3.68947 22.8117
rtibia 30.9902
rfoot 0.259752 9.37965
rtoes 47.4576
lfemur -11.6022 -0.453673 -19.7896
ltibia 27.4634
lfoot -25.2383 2.24306
ltoes -21.4606
5
root -10.8146 18.3827 1.11526 6.52975 76.8936 -3.17184
lowerback -7.35783 -0.604768 -1.03867
upperback 2.6137 -0.797176 1.55302
thorax 6.90984 -0.471081 2.10772
lowerneck -17.3608 -1.82502 -3.92561
upperneck 22.1999 -2.03845 3.05156
head 10.0084 -0.85157 1.46339
rclavicle -5.96354e-015 -1.80894e-014
rhumerus -35.5328 -33.192 -70.8735
rradius 27.882
rwrist 20.4918
rhand -25.5618 34.2456
rfingers 7.12502
rthumb 0.96894 4.2681
lclavicle -5.96354e-015 -1.80894e-014
lhumerus -29.2636 -0.207141 85.6318
lradius 32.719
lwrist 11.9402
lhand -12.8044 33.8651
lfingers 7.12502
lthumb 13.2818 63.4219
rfemur -22.3425 3.58147 22.7968
rtibia 31.0002
rfoot 0.269262 9.53205
rtoes 47.579
lfemur -11.9942 0.41144 -19.792
ltibia 28.3222
lfoot -24.6826 1.80064
ltoes -22.9892
6
root -10.7777 18.3826 1.15671 7.03381 77.1043 -2.65282
lowerback -7.33474 -0.581727 -0.959987
upperback 2.59373 -0.776113 1.58824
thorax 6.8737 -0.457561 2.10324
lowerneck -17.3135 -1.85915 -3.88234
upperneck 22.0047 -2.0753 2.95018
head 9.92972 -0.878528 1.41372
rclavicle -5.46658e-016 0
rhumerus -35.7668 -33.8572 -70.5559
rradius 27.0883
rwrist 21.088
rhand -25.9965 34.4154
rfingers 7.12502
rthumb 0.549083 4.43639
lclavicle -5.46658e-016 0
lhumerus -29.4064 -0.30305 85.7984
lradius 32.726
lwrist 11.9505
lhand -12.8882 33.8088
lfingers 7.12502
lthumb 13.201 63.3708
rfemur -22.1658 3.47326 22.7949
rtibia 31.0359
rfoot 0.267024 9.70958
rtoes 47.7
lfemur -12.4142 1.19996 -19.7814
ltibia 29.2842
lfoot -24.1825 1.25303
ltoes -23.7558
